<?xml version="1.0" encoding="UTF-8" standalone="no"?>
<!-- Created with Inkscape (http://www.inkscape.org/) -->

<svg
   width="200"
   height="200"
   viewBox="30 220 60 60"
   version="1.1"
   id="svg1"
   xml:space="preserve"
   inkscape:export-filename="bitmap.svg"
   inkscape:export-xdpi="96"
   inkscape:export-ydpi="96"
   inkscape:version="1.4.2 (ebf0e940d0, 2025-05-08)"
   sodipodi:docname="nixos-shell.svg"
   xmlns:inkscape="http://www.inkscape.org/namespaces/inkscape"
   xmlns:sodipodi="http://sodipodi.sourceforge.net/DTD/sodipodi-0.dtd"
   xmlns="http://www.w3.org/2000/svg"
   xmlns:svg="http://www.w3.org/2000/svg"><sodipodi:namedview
     id="namedview1"
     pagecolor="#5d5d5d"
     bordercolor="#000000"
     borderopacity="0.25"
     inkscape:showpageshadow="2"
     inkscape:pageopacity="0.0"
     inkscape:pagecheckerboard="0"
     inkscape:deskcolor="#d1d1d1"
     inkscape:document-units="mm"
     inkscape:zoom="1.4648916"
     inkscape:cx="247.11726"
     inkscape:cy="141.99003"
     inkscape:window-width="1694"
     inkscape:window-height="1077"
     inkscape:window-x="0"
     inkscape:window-y="0"
     inkscape:window-maximized="1"
     inkscape:current-layer="g1"
     showgrid="true"><inkscape:grid
       id="grid1"
       units="mm"
       originx="0"
       originy="0"
       spacingx="0.3"
       spacingy="0.3"
       empcolor="#0000ff"
       empopacity="0.25098039"
       color="#0000ff"
       opacity="0.1254902"
       empspacing="5"
       enabled="true"
       visible="true" /></sodipodi:namedview><defs
     id="defs1" /><g
     inkscape:label="logo"
     inkscape:groupmode="layer"
     id="layer1"><g
       id="g1"
       transform="matrix(1.6289725,0,0,1.8662694,-38.696944,-217.72264)"><g
         id="g2"
         transform="translate(-0.35558581,0.23277242)"><path
           style="fill:#ffffff;stroke:none;stroke-width:0.775999;stroke-dasharray:none"
           d="m 66.381148,246.11644 c -0.846017,0.91823 -2.461098,1.6825 -2.82337,2.77893 0.389908,1.36468 0.779816,2.72935 1.169724,4.09403 0.999077,0.31006 1.998154,0.62012 2.997231,0.93018 -0.169511,-1.50197 -0.181858,-3.03183 -0.45138,-4.51606 -0.297401,-1.09569 -0.594803,-2.19139 -0.892205,-3.28708 z"
           id="path7" /><path
           style="fill:#ffffff;stroke:none;stroke-width:0.775999;stroke-dasharray:none"
           d="m 47.191781,238.46508 c -0.779536,0.15834 -1.559071,0.31669 -2.338607,0.47503 -0.0141,0.72884 0.257608,1.51923 -0.237978,2.14438 -0.160692,0.52666 -0.810163,1.02522 -0.453004,1.58165 0.247945,0.83393 0.816159,1.62286 0.594621,2.52275 -0.01467,0.69737 -0.19238,1.44704 -0.104398,2.11148 0.298937,0.42845 0.893868,0.76695 0.656658,1.35831 -0.0096,0.51141 -0.210249,1.08952 -0.103353,1.56021 1.353407,1.33071 2.652534,2.74655 4.03977,4.0242 2.807532,1.05003 5.672789,1.95326 8.438565,3.10948 1.622294,0.7398 3.323258,1.32583 4.892728,2.16888 1.290135,0.74359 2.534324,1.59038 3.852935,2.27002 0.690148,0.1723 1.385099,0.49788 2.07235,0.57776 0.425544,-0.25039 1.201311,-0.1844 1.198063,-0.82214 0.194695,-0.5042 -0.50628,-0.8095 -0.737468,-1.20931 -0.666854,-0.47157 -0.519243,-1.3542 -0.724738,-2.05862 -0.121359,-0.66074 -0.242717,-1.32147 -0.364076,-1.9822 -0.9866,-0.34105 -1.973201,-0.68209 -2.959801,-1.02314 0.02436,0.73082 0.04872,1.46163 0.07308,2.19245 -1.554839,-1.78557 -3.007784,-3.66563 -4.629091,-5.38956 -0.612874,-0.60299 -1.225748,-1.20598 -1.838622,-1.80897 0.182095,-1.01159 0.23755,-2.08453 0.497233,-3.05854 0.433442,-0.38963 0.790579,-0.9723 1.269036,-1.24804 0.958172,0.0586 1.916349,0.11707 2.874407,0.17749 0.535931,-0.47503 1.071862,-0.95006 1.607793,-1.42509 -1.205845,-0.41413 -2.411689,-0.82826 -3.617534,-1.24239 0.266806,-0.60314 0.08819,-0.95688 -0.574003,-1.03986 -1.604546,-0.6427 -3.293745,-1.10518 -4.749373,-2.06494 -0.795028,-0.42825 -1.531872,-1.02193 -2.475386,-1.028 -0.698375,-0.10374 -1.403825,-0.33685 -2.078697,-0.0108 -0.583226,0.32066 -0.404773,-0.91477 -1.122359,-0.50666 -0.806185,0.0268 -1.631391,0.20296 -2.38604,-0.17499 -0.190904,-0.0603 -0.381807,-0.12057 -0.572711,-0.18086 z"
           id="path6" /><path
           d="m 48.954353,238.65297 c -1.281703,-0.94564 -2.886998,-0.17763 -4.30918,-0.14038 -0.261416,1.05509 0.324527,2.20674 -0.882789,2.95505 -1.18486,1.40045 1.401773,2.47683 0.594151,4.13099 -0.807237,1.64673 1.328959,2.60311 0.406383,4.23427 0.0928,1.23108 1.485394,2.70594 2.605068,3.25959 0.254468,1.58238 1.737726,2.37472 3.221705,2.45676 1.389332,0.78491 2.927777,1.26833 4.518841,1.55657 2.493689,0.44543 4.887172,1.36185 6.986821,2.78565 1.980848,1.09604 3.931186,2.67034 6.292506,2.69252 2.086346,0.12955 1.753797,-2.1083 0.975713,-3.30562 -1.102135,-2.98306 -1.452637,-6.15565 -1.75296,-9.29887 -0.262675,-3.16596 -2.134145,-6.45877 -5.312867,-7.41426 -1.808444,-0.45129 -3.623525,-0.95175 -5.183008,-2.01706 -1.660199,-1.01692 -3.68191,-2.23872 -5.671459,-1.40901 -0.614913,-0.95009 -1.517908,-0.75335 -2.488925,-0.4862 z m 8.105973,15.61779 c -0.539879,0.46846 -2.201035,1.18413 -2.334982,0.8391 1.333767,-0.0939 2.150129,-1.85974 3.118517,-1.95775 0.514584,0.56316 2.30411,1.94497 1.0914,0.50056 -0.633572,-0.3486 -1.431923,-2.33851 -0.359941,-1.00893 1.214436,1.20914 2.161684,2.77612 3.735701,3.55784 -1.248983,-1.70156 -3.215311,-2.97505 -3.816284,-5.0847 0.225675,-0.26239 1.332661,1.48735 1.920387,2.04777 2.643437,3.10033 5.187229,6.39028 8.546546,8.75958 -2.964247,-0.15032 -5.138547,-2.44303 -7.532653,-3.91419 -0.618164,-0.74132 -2.806721,-0.9821 -2.132059,-1.80371 -0.647779,0.38147 -1.332615,0.38211 -0.627141,-0.21122 -0.482689,0.17638 -2.128209,0.61542 -0.920953,-0.11617 1.408799,-1.15667 -2.51948,1.04566 -0.952081,-0.17274 0.886841,-0.61908 0.870314,-1.05612 -0.06599,-0.43425 -0.577718,0.43948 -2.481481,0.76576 -0.977898,0.15314 0.505224,-0.28694 1.025275,-0.62878 1.307433,-1.15433 z m 8.340469,-6.03181 c 2.209512,3.98212 2.172733,8.71456 3.831425,12.896 -1.120259,-0.58221 -1.705439,-1.80947 -2.115779,-2.12911 -0.53781,-0.0632 0.488646,-0.59362 -0.439538,-0.44602 0.378025,-0.39372 -0.482243,-0.27113 -0.518372,-0.83108 0.0688,-0.44958 -0.878979,-0.5144 -0.224578,-0.74579 -1.078902,0.16834 0.544045,-0.57576 -0.587128,-0.36811 -0.320379,-0.0598 0.688861,-0.40809 -0.25691,-0.53498 -0.945814,-0.22194 0.530236,-0.38534 -0.251837,-0.76211 -0.148596,-0.32968 -0.489448,-0.0748 0.243132,-0.48571 -0.614176,-0.0463 -1.085911,-0.10489 -0.397543,-0.42585 -1.490936,0.16316 0.767504,-0.59405 -0.525725,-0.56321 -0.917426,-0.10495 1.21118,-0.4109 -0.13624,-0.49029 -0.908166,-0.15025 1.341668,-0.48009 -0.196452,-0.39432 -1.403787,-0.21123 1.525695,-0.47646 -0.12676,-0.61254 -1.255161,-0.0923 1.221499,-0.29693 -0.04078,-0.60547 -1.390825,-0.0891 1.234735,-0.19158 -0.266585,-0.37805 -0.294063,-0.16553 1.277428,-0.38119 0.05296,-0.41942 -1.556265,-0.19547 1.661816,-0.33543 0.129367,-0.58088 -1.034779,-0.0342 -0.410722,-0.28594 0.26133,-0.40307 -0.482523,-0.1651 -1.705385,-0.0773 -0.541472,-0.35056 1.747838,-0.44909 -2.185742,-0.11153 -0.143981,-0.54273 2.048832,-0.52111 -2.57974,0.0745 -0.330179,-0.46855 1.980244,-0.67261 -1.35457,0.0303 -0.863044,-0.27461 0.763236,-0.22629 2.564646,-0.87853 0.820817,-0.62785 -0.762501,0.21368 -2.95759,1.00208 -1.23177,0.1102 0.725926,-0.22463 2.475654,-1.06744 0.842708,-0.58181 -0.720461,0.13916 -3.045288,1.03866 -1.402166,0.0424 1.216653,-0.9198 3.153007,-0.89921 4.057644,0.44594 0.131552,0.16705 0.249996,0.34484 0.357456,0.52755 z m 1.650541,7.16277 c 0.03886,-1.53297 -0.537141,-2.99802 -0.977216,-4.44446 0.265707,1.49281 0.267432,3.06563 0.977216,4.44446 z m -1.194664,-5.45759 c -0.499151,0.69246 0.567448,0.75333 0,0 z m -10.511245,0.0322 c -1.480197,1.88288 -3.647451,3.62446 -6.156923,3.59556 2.272152,-0.83127 4.589031,-2.05543 5.736351,-4.29856 0.75403,-1.31591 1.805991,-2.41004 2.806226,-3.53539 0.77433,-1.33776 -1.16676,-3.33098 -0.374558,-4.22874 2.811746,1.22113 6.239237,1.79784 8.11877,4.46911 0.5646,0.60718 1.405082,3.42885 0.410604,1.52164 -1.616154,-2.09624 -4.977621,-2.5749 -7.151802,-1.1062 -1.601897,1.37401 -0.508709,3.7102 -1.411169,5.38901 -0.786834,1.6455 -2.45036,3.05282 -4.335781,3.08324 0.925568,-0.51013 2.720284,-1.66559 2.682738,-2.25788 -1.268955,1.05881 -2.788658,1.94387 -4.473772,2.03781 1.528914,-0.87106 3.404123,-1.50708 4.265808,-3.16556 -1.380966,1.40448 -3.215919,2.35252 -5.160461,2.66618 1.413888,-0.58945 2.827923,-1.17854 4.241648,-1.76838 0.267948,-0.80044 0.535217,-1.60113 0.802321,-2.40184 z m 6.366285,-3.53255 c -0.552247,0.39337 -2.556249,1.378 -1.102245,0.33494 0.330682,-0.20183 0.711084,-0.33948 1.102245,-0.33494 z m -8.985692,5.04119 c -1.006351,0.44884 -3.333771,1.76776 -3.676587,1.11484 1.149689,-0.48775 2.575395,-1.07984 3.706574,-1.18425 l -0.03036,0.0698 z m -5.861265,-0.56394 c -1.338467,-0.20011 -1.724517,-2.9515 -0.06359,-2.62186 1.491439,-0.39669 2.302687,-1.93065 3.588788,-2.70514 1.518061,-0.74858 1.768458,-2.48739 2.005867,-3.98833 0.606295,-0.85158 -2.235439,-2.21825 -0.309177,-2.04414 1.516173,-0.9226 1.961061,1.19476 3.518983,0.87207 1.854033,0.48804 -0.267975,3.02106 1.603701,3.83087 5.085514,4.27822 10.273129,8.43915 15.312928,12.7692 -5.14233,-4.0429 -10.191745,-8.20324 -15.284402,-12.30849 0.06,1.49958 -1.797545,1.91273 -2.405531,3.07524 -0.708361,1.07506 -1.051953,3.0018 -2.711591,2.85102 -1.55765,-0.2592 -2.638665,1.07464 -3.884793,1.44612 0.0032,-0.88337 1.981651,-1.65595 2.823081,-2.40167 -1.69805,-0.31089 -2.380327,1.53899 -3.763975,1.93749 -0.0585,-0.65306 1.725299,-1.81736 2.458737,-2.57636 1.163743,-0.86786 -1.353142,0.27312 -1.676319,0.75507 -0.426215,0.34409 -0.828791,0.72092 -1.212709,1.10891 z m 7.131274,-3.17093 c 0.485853,-0.52652 2.501037,-2.34367 0.77404,-1.57156 -0.498471,0.31302 -1.161994,0.92578 -0.77404,1.57156 z m 0.580604,-2.15507 c -1.101154,-0.57465 -2.030892,2.32371 -0.802921,0.91476 0.222394,-0.3416 0.478143,-0.66432 0.802921,-0.91476 z m -5.358565,2.59158 c -0.953895,-0.95014 -2.213773,1.75449 -0.868137,0.5793 0.306199,-0.16714 0.616001,-0.33318 0.868137,-0.5793 z m -3.588021,-3.22362 c 0.365408,-1.55114 2.480244,-1.90558 3.259996,-3.30166 -0.250636,-1.30588 -0.328909,-3.32494 1.547513,-2.51961 -0.195453,1.5773 2.439277,2.0033 0.902437,3.46973 -0.328699,1.23804 -0.376375,2.58092 -1.979448,2.85543 -1.202453,0.4158 -1.723656,3.0908 -3.244029,1.76508 -1.344006,-0.23486 -0.721438,-0.8644 0.315911,-0.72494 0.395029,-0.33394 -2.338093,-0.52038 -0.711594,-1.01117 0.971974,-0.18221 -0.104148,-0.19509 -0.09079,-0.53286 z m 3.484027,-0.28415 c -1.076948,-0.58581 -2.307939,2.35607 -1.062987,0.9922 0.354329,-0.33074 0.708658,-0.66147 1.062987,-0.9922 z m 1.596077,-2.44601 c -1.153978,-0.11721 -0.506211,2.14188 -0.157829,0.56572 l 0.04105,-0.29343 0.116783,-0.27229 z m -2.639923,1.94655 c -0.80328,-0.43701 -1.313916,1.51562 -0.277259,0.16992 l 0.277259,-0.16994 z m -3.978701,-1.78366 c 0.650333,-0.94951 1.371332,-2.49472 1.240644,-3.23466 0.94561,-0.19563 3.69846,-1.09691 2.725528,0.81837 0.09474,0.9732 0.396981,2.1553 -0.954394,2.31992 -0.852537,0.97249 -1.934898,1.83723 -2.653805,0.32349 l -0.173567,-0.12094 -0.184177,-0.10637 z m 3.007237,-0.79534 c -1.195299,-0.79698 -1.997893,2.08961 -0.725253,0.57738 0.173923,-0.2617 0.431937,-0.46644 0.725253,-0.57738 z"
           id="path1"
           style="stroke-width:0.264583" /><g
           id="g6"
           transform="matrix(0.16556226,0.06092787,-0.06092787,0.16556226,61.111425,235.29363)"
           style="fill:#ffffff;stroke:#000000;stroke-width:4.39866;stroke-dasharray:none"><path
             fill="#7ebae4"
             d="M 50.732,43.771 C 42.371942,59.393904 34.011885,75.016808 25.651827,90.639712 22.143115,88.641524 18.634403,86.643337 15.125691,84.645149 17.288127,79.860766 19.450564,75.076383 21.613,70.292 18.23369,70.084645 14.85438,69.877289 11.47507,69.669934 c 1.686028,-3.407453 1.783554,-8.019219 5.67125,-9.75749 2.230728,-2.545324 5.099449,-2.787546 8.237913,-2.056021 3.682768,1.650503 4.471809,-2.312741 6.053269,-4.738716 1.788166,-3.103235 3.576332,-6.206471 5.364498,-9.309707 4.643333,-0.01233 9.286667,-0.02467 13.93,-0.037 z m 2.318,42.094 c 20.136333,0.001 40.272667,0.002 60.409,0.003 -2.27567,4.054667 -4.55133,8.109333 -6.827,12.164 -5.40167,-0.015 -10.803333,-0.03 -16.205,-0.045 2.682333,4.705 5.364667,9.41 8.047,14.115 -1.839857,1.92948 -2.043519,6.68112 -5.389834,6.0122 -3.193871,0.34319 -6.177428,0.3241 -7.030088,-3.36551 C 82.879052,109.17346 79.704026,103.59823 76.529,98.023 71.034667,98.011667 65.540333,98.000333 60.046,97.989 57.714,93.947667 55.382,89.906333 53.05,85.865 Z M 88.21,62.791 C 78.142667,45.237667 68.075333,27.684333 58.008,10.131 62.634667,10.08733 67.261333,10.04367 71.888,10 c 2.687667,4.716 5.375333,9.432 8.063,14.148 2.706667,-4.690667 5.413333,-9.381333 8.12,-14.072 2.577063,0.637668 6.792451,-1.5555166 7.863906,1.683682 1.878022,2.608631 3.379972,5.216861 0.624109,7.820548 C 93.349343,25.135153 90.139672,30.690077 86.93,36.245 c 2.737667,4.795333 5.475333,9.590667 8.213,14.386 -2.311,4.053333 -4.622,8.106667 -6.933,12.16 z"
             clip-rule="evenodd"
             fill-rule="evenodd"
             id="path1-6"
             style="fill:#ffffff;stroke:#000000;stroke-width:4.39866;stroke-dasharray:none" /><path
             fill="#5277c3"
             d="m 39.831,65.463 c 8.249195,14.911813 16.49839,29.823627 24.747585,44.73544 -6.075761,-2.39128 -12.125042,-4.83334 -17.395327,-8.76921 -2.876165,-1.775912 -5.500557,-3.919793 -8.255997,-5.872144 2.704196,-2.540763 1.88534,-5.139603 -0.22066,-7.759663 C 36.770401,84.405949 34.8342,81.014474 32.898,77.623 35.209,73.569667 37.52,69.516333 39.831,65.463 Z M 74.911,42.256 C 54.774667,42.255 34.638333,42.254 14.502,42.253 c 2.276,-4.054333 4.552,-8.108667 6.828,-12.163 5.401333,0.015 10.802667,0.03 16.204,0.045 -2.682333,-4.705 -5.364667,-9.41 -8.047,-14.115 1.839856,-1.929684 2.043519,-6.680612 5.389833,-6.012751 3.194053,-0.3438703 6.178338,-0.3263078 7.030962,3.364135 3.174735,5.575206 6.34947,11.150411 9.524205,16.725616 5.494667,0.01133 10.989333,0.02267 16.484,0.034 2.331101,4.041592 4.666742,8.083783 6.995,12.125 z m 2.357,42.216 c 10.069,-17.552667 20.138,-35.105333 30.207,-52.658 2.35067,4.011333 4.70133,8.022667 7.052,12.034 -2.71367,4.700667 -5.42733,9.401333 -8.141,14.102 5.38933,0.01433 10.77867,0.02867 16.168,0.043 0.74198,2.565593 4.72219,5.130093 2.4826,7.696693 -1.30337,2.941381 -2.79649,5.55436 -6.43525,4.454 -6.37778,-0.02023 -12.75557,-0.04046 -19.13335,-0.06069 -2.756667,4.784 -5.513333,9.568 -8.27,14.352 -4.643333,0.01233 -9.286667,0.02467 -13.93,0.037 z"
             clip-rule="evenodd"
             fill-rule="evenodd"
             id="path2"
             style="fill:#ffffff;stroke:#000000;stroke-width:4.39866;stroke-dasharray:none" /></g></g></g></g></svg>
