<?xml version="1.0" encoding="UTF-8" standalone="no"?>
<!-- Created with Inkscape (http://www.inkscape.org/) -->

<svg
   width="260"
   height="140"
   viewBox="30 215 65 35"
   version="1.1"
   id="svg1"
   xml:space="preserve"
   inkscape:export-filename="bitmap.svg"
   inkscape:export-xdpi="96"
   inkscape:export-ydpi="96"
   inkscape:version="1.4.2 (ebf0e940d0, 2025-05-08)"
   sodipodi:docname="nixos-shell.svg"
   xmlns:inkscape="http://www.inkscape.org/namespaces/inkscape"
   xmlns:sodipodi="http://sodipodi.sourceforge.net/DTD/sodipodi-0.dtd"
   xmlns="http://www.w3.org/2000/svg"
   xmlns:svg="http://www.w3.org/2000/svg"><sodipodi:namedview
     id="namedview1"
     pagecolor="#5d5d5d"
     bordercolor="#000000"
     borderopacity="0.25"
     inkscape:showpageshadow="2"
     inkscape:pageopacity="0.0"
     inkscape:pagecheckerboard="0"
     inkscape:deskcolor="#d1d1d1"
     inkscape:document-units="mm"
     inkscape:zoom="5.12"
     inkscape:cx="183.20313"
     inkscape:cy="893.16407"
     inkscape:window-width="2544"
     inkscape:window-height="1370"
     inkscape:window-x="0"
     inkscape:window-y="0"
     inkscape:window-maximized="0"
     inkscape:current-layer="layer1" /><defs
     id="defs1" /><g
     inkscape:label="Layer 1"
     inkscape:groupmode="layer"
     id="layer1"><path
       style="fill:#ffffff;stroke:none;stroke-width:0.775999;stroke-dasharray:none"
       d="m 56.534018,230.47689 c -0.206706,0.10335 -2.893881,2.53214 -2.893881,2.53214 l 1.240235,4.34082 2.997231,0.93018 -0.361735,-4.18579 z"
       id="path7" /><path
       style="fill:#ffffff;stroke:none;stroke-width:0.775999;stroke-dasharray:none"
       d="m 37.344651,222.82553 -2.338607,0.47503 0.07308,1.53471 -0.913519,1.7905 0.803896,2.1559 -0.219244,2.81364 0.767355,0.91352 -0.219244,2.00974 4.019484,4.05602 7.417773,2.66748 5.554194,2.37515 4.129106,2.48477 2.155905,0.65773 1.169305,-0.43849 0.182702,-0.69427 -0.694274,-0.8039 -0.548111,-0.58465 -0.657733,-3.581 -2.959801,-1.02314 0.07308,2.19245 -4.202186,-4.96954 -2.265527,-2.22899 0.438489,-2.99634 1.242385,-1.31547 1.790497,0.10962 1.169305,0.0731 1.607793,-1.42509 -3.617534,-1.24239 0.146164,-0.76736 -4.056026,-1.53471 -2.959801,-1.68087 -2.265526,-0.36541 -1.059683,0.29233 -0.292325,-0.6212 -2.082824,0.10963 z"
       id="path6" /><path
       d="m 39.107223,223.01342 q -0.778677,-0.62717 -2.215014,-0.42187 -1.946271,0.30305 -2.094166,0.28149 a 0.94853125,0.94853125 0 0 0 -0.119206,0.92814 2.2407562,2.2407562 0 0 1 0.147202,0.93827 q -0.17675,0.22397 -0.46747,0.55541 -0.337836,0.39497 -0.443315,0.53323 a 1.4726708,1.4726708 0 0 0 -0.396184,1.06724 0.7477125,0.7477125 0 0 0 0.306985,0.4898 1.8139833,1.8139833 0 0 1 0.407472,0.43655 3.0744583,3.0744583 45 0 1 0.310476,1.80144 q -0.01521,0.21327 -0.107975,0.91731 -0.0837,0.5765 -0.09972,0.94941 a 3.5454167,3.5454167 0 0 0 0.736191,0.92633 2.2812375,2.2812375 0 0 1 -0.02055,1.19438 8.9450333,8.9450333 0 0 0 -0.233046,1.17339 q 0.419333,0.26622 1.239601,1.51184 0.656843,0.9794 1.394065,0.98944 0.564234,1.38543 0.554494,1.37462 a 2.7088042,2.7088042 0 0 0 1.532247,0.99945 q 0.209531,0.0636 0.800648,0.16872 a 6.0803896,6.0803896 0 0 1 0.798771,0.19038 2.3492354,2.3492354 0 0 1 0.471042,0.29759 3.2869187,3.2869187 0 0 0 0.574412,0.34008 q 0.653733,0.26532 3.611561,0.93161 a 18.93861,18.93861 0 0 1 4.34615,1.41969 q 0.123798,0.0636 3.980395,2.35936 2.349871,1.39265 3.866049,1.57067 a 2.9831771,2.9831771 0 0 0 1.096637,-0.0876 1.6025812,1.6025812 0 0 0 0.874572,-0.41784 q 0.384053,-0.43774 0.123641,-1.2906 a 4.6939729,4.6939729 0 0 0 -0.277577,-0.75649 q -0.217159,-0.55411 -0.289169,-0.74604 a 29.245719,29.245719 0 0 1 -1.510433,-7.03476 q -0.242129,-2.92135 -0.644465,-4.31675 a 8.378825,8.378825 0 0 0 -2.646354,-4.14383 6.6349562,6.6349562 0 0 0 -2.621856,-1.31685 q -2.317389,-0.62382 -2.629912,-0.75159 a 22.780625,22.780625 0 0 1 -2.019975,-1.06249 q -1.436122,-0.84994 -1.931278,-1.10511 -2.241116,-1.11521 -3.916021,-0.40782 -0.181947,-0.0111 -0.382107,-0.34079 a 0.70035208,0.70035208 0 0 0 -0.433087,-0.3721 5.7898771,5.7898771 0 0 0 -1.673703,0.22671 z m 8.105973,15.61779 q -1.861239,1.22009 -2.509956,0.86901 1.392163,-0.18361 3.028429,-2.14956 a 3.53695,3.53695 0 0 1 0.960536,0.77664 q 0.587171,0.6065 0.9483,0.64836 a 6.9585417,6.9585417 0 0 0 -0.931606,-1.18186 q -0.654602,-0.72344 -0.546704,-1.18247 0.320548,0.29799 2.132766,2.33111 1.295194,1.47949 2.16893,1.81959 -0.391244,-0.51104 -1.166071,-1.34159 -0.992954,-1.06381 -1.230511,-1.34117 -1.394528,-1.58548 -1.455868,-2.68424 4.35615,5.19508 5.167943,6.11057 3.170153,3.53439 5.335156,4.97908 -1.938929,0.0573 -5.101326,-2.2295 -3.72192,-2.6788 -4.883039,-3.0507 a 1.0194396,1.0194396 0 0 1 0.302963,-0.20316 c 0.06672,-0.0355 0.07243,-0.11394 0.01669,-0.23454 q -0.988316,0.52437 -1.016123,0.1522 0.05637,0.10699 0.274015,-0.0965 0.217613,-0.20348 0.114967,-0.26692 a 5.1379437,5.1379437 0 0 0 -0.74138,0.21389 1.1718396,1.1718396 0 0 1 -0.721665,0.0764 2.2793854,2.2793854 0 0 1 0.542092,-0.40646 0.68077292,0.68077292 0 0 0 0.384577,-0.4585 4.2203687,4.2203687 0 0 0 -0.464525,0.21426 q -0.353895,0.17107 -0.474656,0.22589 a 1.9031479,1.9031479 0 0 1 -0.91346,0.21526 q 1.156456,-0.78085 1.316988,-1.22928 l -0.664211,0.32138 q -0.433779,0.22392 -0.641903,0.32047 a 2.9048604,2.9048604 0 0 1 -1.282956,0.301 q 1.642532,-0.71843 2.05161,-1.51866 z m 8.340469,-6.03181 q 1.231924,2.07711 2.147518,6.50091 1.000312,4.88256 1.683907,6.39509 -0.504056,-0.12706 -0.999133,-0.84088 -0.444698,-0.66022 -0.829797,-0.65944 0.187243,-0.23485 0.159323,-0.28842 -0.250613,0.053 -0.263444,-0.0527 a 1.1784542,1.1784542 0 0 1 0.07524,-0.30947 0.238125,0.238125 0 0 1 -0.257968,0.0218 2.0108333,2.0108333 0 0 1 -0.250551,-0.0846 l 0.193613,-0.18072 q 0.09353,-0.10684 0.05493,-0.1707 a 0.55165625,0.55165625 0 0 1 -0.43753,-0.01 q 0.208779,-0.23505 0.16925,-0.27778 -0.369489,0.0857 -0.497108,-0.0735 0.114962,-0.26691 -0.190514,-0.4798 A 0.36380208,0.36380208 0 0 1 56.162457,241.93 c -0.02484,-0.0568 0.01294,-0.13152 0.11218,-0.22414 a 0.33919583,0.33919583 0 0 0 -0.253696,-0.0422 0.29289375,0.29289375 0 0 1 -0.243585,-0.0314 q 0.184638,-0.49085 0.309467,-0.28886 -0.06821,-0.0959 -0.256667,3.4e-4 -0.167305,0.0964 -0.240621,-0.074 a 0.33655,0.33655 0 0 1 0.221403,-0.10713 0.35163125,0.35163125 45 0 0 0.226228,-0.17098 0.57335208,0.57335208 0 0 0 -0.360779,-0.0422 1.6856604,1.6856604 0 0 1 -0.35513,0.0329 0.42148125,0.42148125 0 0 1 0.281237,-0.20278 q 0.175744,-0.0641 0.09613,-0.14944 a 0.555625,0.555625 0 0 1 -0.455839,-0.1898 0.52440417,0.52440417 0 0 0 -0.449203,-0.15981 1.0260542,1.0260542 0 0 1 0.267238,-0.14991 0.58869792,0.58869792 0 0 0 0.261558,-0.22386 q -0.275234,-0.0421 -0.323399,-0.11654 c -0.03219,-0.0496 -0.01057,-0.14938 0.06403,-0.299 a 0.9017,0.9017 0 0 1 -0.271051,0.0539 q -0.192266,3e-4 -0.07649,-0.12767 0.230873,0.0635 0.518612,-0.22493 -0.09567,-0.0106 -0.43474,-0.0524 a 2.1529146,2.1529146 0 0 1 -0.421656,-0.0845 q 0.05029,-0.10666 0.309928,-0.14994 0.194118,-0.0216 0.148925,-0.13901 a 0.65219792,0.65219792 0 0 0 -0.329327,-0.0314 0.51038125,0.51038125 0 0 1 -0.317538,-0.042 0.993775,0.993775 0 0 1 0.387937,-0.18113 q 0.252494,-0.0967 0.220381,-0.24588 -0.100989,-0.0849 -0.487178,-0.0628 -0.310949,0.0112 -0.28877,-0.14886 a 1.0797646,1.0797646 0 0 0 0.656413,-0.21457 1.0940521,1.0940521 0 0 0 -0.503883,-0.12686 q -0.339628,-0.042 -0.34158,-0.15928 a 1.6978312,1.6978312 0 0 0 0.806368,-0.21484 q -0.102464,-0.0636 -0.66124,-0.0202 -0.429092,0.0227 -0.462223,-0.26564 a 1.4583833,1.4583833 0 0 0 0.946797,-0.22647 q -0.179562,-0.0315 -0.527077,-0.10558 l -0.538481,-0.0949 q 0.106057,-0.1388 0.502565,-0.15023 0.310769,-0.0114 0.31438,-0.21419 -0.923607,-0.39236 -0.914318,-0.22187 0.05425,-0.0105 0.216379,-0.021 a 1.5816792,1.5816792 0 0 0 0.268476,-0.0334 q 0.323665,-0.0433 0.321135,-0.16004 a 2.9130625,2.9130625 0 0 0 -0.358745,-0.0633 c -0.15458,-0.028 -0.270939,-0.0526 -0.347524,-0.0737 a 0.54027917,0.54027917 0 0 1 0.364212,-0.1608 0.56647292,0.56647292 0 0 0 0.371566,-0.12966 1.5660687,1.5660687 0 0 0 -0.538307,-0.0947 0.91148958,0.91148958 0 0 1 -0.525535,-0.12837 0.98663125,0.98663125 45 0 1 0.587747,-0.15048 1.1049,1.1049 0 0 0 0.586636,-0.12918 1.3030729,1.3030729 45 0 0 -0.703658,-0.17999 q -0.457399,-0.0305 -0.511032,-0.17991 a 3.6687125,3.6687125 0 0 0 0.956539,-0.21602 3.8848771,3.8848771 0 0 0 -1.134052,-0.13585 1.8851562,1.8851562 0 0 1 0.59258,-0.21471 2.0372917,2.0372917 0 0 0 0.582461,-0.22517 2.21615,2.21615 0 0 0 -0.800394,-0.0292 q -0.526235,0.033 -0.62255,-0.11636 0.218232,-0.064 0.696502,-0.172 a 5.8184521,5.8184521 45 0 0 0.686399,-0.18284 q -0.276314,-0.17967 -0.969243,-0.0512 -0.681937,0.11859 -0.811021,-0.0197 a 3.2594021,3.2594021 0 0 0 0.763686,-0.21481 8.2227208,8.2227208 0 0 1 0.779543,-0.28932 2.1349229,2.1349229 0 0 0 -0.942598,0.0231 4.1573979,4.1573979 0 0 1 -0.938415,0.11911 3.5594396,3.5594396 0 0 1 1.001136,-0.39663 3.8065604,3.8065604 0 0 0 1.000953,-0.39646 3.1469542,3.1469542 45 0 0 -1.488785,0.19526 q -1.280632,0.41828 -1.518931,0.46155 a 4.7225479,4.7225479 0 0 1 1.377407,-0.72794 3.9219187,3.9219187 0 0 0 1.162772,-0.56741 q -0.225217,0.0115 -3.007048,0.79517 1.500806,-1.26151 2.843349,-1.20011 1.405878,0.0812 2.312259,1.62574 z m 1.650541,7.16277 q 0.132921,-1.11975 -0.977216,-4.44446 0.07684,0.42665 0.166231,1.11956 0.109705,0.87482 0.146568,1.09811 a 7.4699812,7.4699812 0 0 0 0.664417,2.22679 z m -1.194664,-5.45759 a 0.37041667,0.37041667 45 0 0 -0.12311,0.37297 0.22489583,0.22489583 0 0 0 0.220105,0.21295 q 0.135364,-0.24506 -0.097,-0.58591 z m -10.511245,0.0322 a 10.402358,10.402358 0 0 1 -2.970267,2.67292 q -1.71754,1.00489 -3.186656,0.92264 2.987368,-1.1152 4.423113,-2.51505 a 10.509515,10.509515 45 0 0 1.313238,-1.78351 16.714258,16.714258 0 0 1 1.330774,-1.87951 l 1.475452,-1.65588 q 0.382649,-0.87545 -0.163216,-2.21795 -0.582801,-1.42782 -0.386101,-2.08953 0.610111,0.28722 2.642996,1.01843 a 24.770821,24.770821 0 0 1 2.86663,1.18899 q 3.267833,1.70957 3.715212,4.73758 a 4.5992521,4.5992521 0 0 0 -2.994661,-2.54255 5.8303583,5.8303583 0 0 0 -3.899756,0.11446 q -1.427715,0.53638 -1.685697,2.21079 a 12.027694,12.027694 45 0 0 -0.07716,1.38693 6.7135375,6.7135375 0 0 1 -0.08643,1.21569 5.1763083,5.1763083 0 0 1 -1.76652,2.88343 q -1.435319,1.24092 -2.909233,1.22179 1.453662,-0.89829 1.578102,-0.99489 a 3.3766125,3.3766125 0 0 0 1.253218,-1.38873 q -2.379442,2.04182 -4.622354,2.16355 2.154997,-1.13451 2.367591,-1.27396 1.455361,-0.92049 1.898217,-1.8916 a 9.3794792,9.3794792 0 0 1 -5.160461,2.66618 q 4.241638,-1.76801 4.241648,-1.76838 c 0,0 0.268332,-0.80096 0.802329,-2.40184 z m 6.366285,-3.53255 a 6.2288208,6.2288208 0 0 0 -0.891541,0.51366 1.7229667,1.7229667 0 0 1 -0.891458,0.35361 q 0.91749,-0.87556 1.782619,-0.86692 z m -8.985692,5.04119 q -0.319487,0.13933 -1.017,0.47116 -0.698444,0.35334 -1.050848,0.50275 -1.233967,0.51479 -1.835828,0.25969 a 9.4405979,9.4405979 0 0 1 1.893706,-0.77156 q 1.607449,-0.50435 1.881464,-0.60087 a 0.0904875,0.0904875 0 0 1 0.128438,-4.5e-4 0.09577917,0.09577917 0 0 1 -3.06e-4,0.13963 z m -5.861265,-0.56394 a 1.7057687,1.7057687 0 0 1 -1.104195,-1.16011 1.4478,1.4478 0 0 1 0.36258,-1.49373 1.8729854,1.8729854 0 0 0 1.68817,-0.44035 q 0.24905,-0.19229 0.809778,-0.71605 0.574372,-0.55566 0.948796,-0.86606 1.881234,-1.49644 1.833729,-1.43255 a 4.6251812,4.6251812 0 0 0 0.762498,-2.00635 q 0.280361,-1.53605 0.358124,-1.72844 0.05019,0.0538 -0.74677,-0.77675 -0.44683,-0.47871 -0.435436,-0.78794 0.361447,0.18055 1.082796,-0.0335 a 2.0611042,2.0611042 0 0 1 1.088386,-0.11976 0.87709375,0.87709375 0 0 1 0.252231,0.36212 0.96811042,0.96811042 0 0 0 0.273565,0.36211 q 0.261336,0.23382 1.176264,0.29623 0.850559,0.0621 1.142362,0.48713 a 0.71649167,0.71649167 0 0 1 0.06508,0.73551 2.1531792,2.1531792 0 0 0 -0.127823,1.19461 3.175,3.175 45 0 0 0.498728,1.1078 3.6210875,3.6210875 0 0 1 0.444237,0.82026 q 0.09634,0.7465 -0.666114,1.39846 -1.410607,1.19723 -1.469337,1.27195 a 9.0241437,9.0241437 0 0 0 -0.94393,1.69759 q -0.469033,1.03534 -1.081916,1.38844 a 1.8830396,1.8830396 0 0 1 -0.770652,0.16159 q -0.782911,0.0337 -0.890323,0.0543 a 5.051425,5.051425 0 0 0 -1.773079,0.57934 2.2489583,2.2489583 0 0 0 -0.408835,0.34215 2.9067125,2.9067125 0 0 1 -0.333781,0.33146 0.71622708,0.71622708 0 0 1 -0.879859,0.0442 7.5834875,7.5834875 0 0 1 1.544969,-1.28282 q 1.358939,-0.9094 1.494023,-1.01595 -1.179037,0.0451 -1.762319,0.42995 0.05573,-0.0318 -1.111896,1.05775 -0.664002,0.61978 -1.139128,0.38645 2.392128,-2.37216 3.219656,-2.88616 -1.350688,0.16445 -3.400983,2.23745 z m 7.131274,-3.17093 q 0.03421,-0.0319 0.772638,-0.80081 a 13.131535,13.131535 0 0 0 0.871599,-0.99452 1.7880542,1.7880542 0 0 0 -1.300945,0.55703 q -0.697356,0.6527 -0.343292,1.2383 z m 0.580604,-2.15507 q -0.140669,-0.12785 -0.481875,0.0115 a 2.0155958,2.0155958 0 0 0 -0.594702,0.39585 1.2154958,1.2154958 0 0 0 -0.370129,0.54454 0.42121667,0.42121667 0 0 0 0.200461,0.49006 4.7905458,4.7905458 0 0 0 0.573733,-0.71649 3.2382354,3.2382354 0 0 1 0.67251,-0.72545 z m -5.358565,2.59158 a 0.50614792,0.50614792 0 0 0 -0.470926,-0.13771 1.2379854,1.2379854 0 0 0 -0.592571,0.21433 0.87841667,0.87841667 0 0 0 -0.393987,0.42748 0.43285833,0.43285833 0 0 0 0.09188,0.51179 2.1293667,2.1293667 0 0 1 0.690827,-0.54529 2.9331708,2.9331708 0 0 0 0.674779,-0.47059 z m -3.588021,-3.22362 a 2.2293792,2.2293792 0 0 0 0.119578,-0.62917 q 0.171755,-0.16032 1.650382,-1.26179 a 6.7566646,6.7566646 0 0 0 1.490036,-1.4107 6.7884146,6.7884146 0 0 0 -0.08171,-1.25817 3.2197146,3.2197146 0 0 1 0.04653,-1.25844 q 1.109058,-0.25814 1.582693,-0.003 -0.05036,1.16284 1.498424,2.22576 -0.01439,0.0536 -0.676182,1.40822 -0.413763,0.84369 -0.174317,1.39762 a 1.8785417,1.8785417 0 0 1 -1.064768,0.99385 7.2718083,7.2718083 0 0 0 -1.28721,0.66366 q 0.03407,-0.0318 -0.853283,1.17467 -0.531611,0.71626 -1.220036,0.62122 a 1.5023042,1.5023042 0 0 0 -0.758157,-0.46752 1.9502437,1.9502437 0 0 1 -0.752475,-0.39321 1.1482917,1.1482917 0 0 1 0.732415,-0.22543 3.2247417,3.2247417 0 0 0 0.731774,-0.0656 1.0345208,1.0345208 45 0 0 -0.83127,-0.3392 q -0.552853,-0.0421 -0.641769,-0.29748 a 0.65801875,0.65801875 0 0 1 0.580131,-0.34243 q 0.365611,-0.022 0.385749,-0.161 a 0.52916667,0.52916667 0 0 0 -0.320058,-0.1591 0.18520833,0.18520833 0 0 1 -0.155884,-0.21317 z m 3.484027,-0.28415 q -0.512891,-0.15863 -1.142469,0.42902 -0.639506,0.57701 -0.483408,1.08858 z m 1.596077,-2.44601 a 0.38761458,0.38761458 0 0 0 -0.394,0.12889 1.0697104,1.0697104 45 0 0 -0.276065,0.43865 0.59954583,0.59954583 0 0 0 -0.0214,0.43655 0.25452917,0.25452917 0 0 0 0.331272,0.14864 0.98663125,0.98663125 45 0 0 0.202364,-0.58701 1.1160125,1.1160125 0 0 1 0.157831,-0.56572 z m -2.639923,1.94655 q -0.184019,-0.26617 -0.561944,0.0862 a 1.3964708,1.3964708 0 0 0 -0.424239,0.5556 q 0.250174,0.0846 0.496909,-0.22531 a 1.0506604,1.0506604 0 0 1 0.489274,-0.41651 z m -3.978701,-1.78366 a 16.450469,16.450469 0 0 1 0.914982,-1.59094 q 0.556899,-0.91794 0.106555,-1.65323 0.304651,0.0739 1.677796,-0.29134 1.154352,-0.30113 1.426615,0.0825 0.205752,0.26615 -0.0446,0.77852 -0.284584,0.54468 -0.135316,0.8632 0.431181,0.55339 -0.112691,1.43999 -0.583031,-0.0733 -1.403563,0.7918 -0.808953,0.85496 -1.296489,0.79175 a 2.5024292,2.5024292 0 0 0 -1.13306,-1.21244 z m 3.007237,-0.79534 a 0.59240208,0.59240208 0 0 0 -0.495799,-0.095 1.3829771,1.3829771 0 0 0 -0.542923,0.26753 1.0485437,1.0485437 0 0 0 -0.385352,0.45922 0.49450625,0.49450625 0 0 0 0.04921,0.51181 1.6345958,1.6345958 45 0 0 0.649611,-0.56618 1.5213542,1.5213542 0 0 1 0.725436,-0.57723 z"
       id="path1"
       style="stroke-width:0.264583" /><g
       id="g6"
       transform="matrix(0.16556226,0.06092787,-0.06092787,0.16556226,51.264295,219.65408)"
       style="fill:#ffffff;stroke:#000000;stroke-width:4.39866;stroke-dasharray:none"><path
         fill="#7ebae4"
         d="M 50.732,43.771 25.651827,90.639712 15.125691,84.645149 21.613,70.292 11.47507,69.669934 14.416602,61.930539 20.557041,57.39088 28.532,58.16 36.802,43.808 Z m 2.318,42.094 60.409,0.003 -6.827,12.164 -16.205,-0.045 8.047,14.115 -3.45,6.01 -7.05,0.008 L 76.529,98.023 60.046,97.989 Z M 88.21,62.791 58.008,10.131 71.888,10 l 8.063,14.148 8.12,-14.072 6.897,0.002 3.532,6.143 -11.57,20.024 8.213,14.386 z"
         clip-rule="evenodd"
         fill-rule="evenodd"
         id="path1-6"
         style="fill:#ffffff;stroke:#000000;stroke-width:4.39866;stroke-dasharray:none"
         sodipodi:nodetypes="cccccccccccccccccccccccccccccc" /><path
         fill="#5277c3"
         d="M 39.831,65.463 64.578585,110.19844 54.132136,105.86562 45.349964,100.25879 38.927261,95.557086 41.111,92.009 32.898,77.623 Z M 74.911,42.256 14.502,42.253 21.33,30.09 37.534,30.135 29.487,16.02 l 3.45,-6.01 7.051,-0.01 11.444,20.097 16.484,0.034 6.996,12.124 z m 2.357,42.216 30.207,-52.658 7.052,12.034 -8.141,14.102 16.168,0.043 3.446,6.013 -3.519,6.15 -23.013,-0.073 -8.27,14.352 z"
         clip-rule="evenodd"
         fill-rule="evenodd"
         id="path2"
         style="fill:#ffffff;stroke:#000000;stroke-width:4.39866;stroke-dasharray:none"
         sodipodi:nodetypes="ccccccccccccccccccccccccccccc" /></g></g></svg>
